<?xml version="1.0" encoding="utf-8"?>
<!-- Generator: Adobe Illustrator 24.1.2, SVG Export Plug-In . SVG Version: 6.00 Build 0)  -->
<svg version="1.1" id="Layer_1_copy" xmlns="http://www.w3.org/2000/svg" xmlns:xlink="http://www.w3.org/1999/xlink" x="0px"
	 y="0px" viewBox="0 0 595.3 841.9" style="enable-background:new 0 0 595.3 841.9;" xml:space="preserve">
<style type="text/css">
	.st0{fill:#FFFFFF;stroke:#6D6E71;stroke-width:2;stroke-miterlimit:10;}
	.st1{fill:#FFFFFF;}
	.st2{fill:none;stroke:#6D6E71;stroke-width:2;stroke-miterlimit:10;}
	.st3{fill:#FFFFFF;stroke:#6D6E71;stroke-width:2;stroke-linecap:round;stroke-linejoin:round;stroke-miterlimit:10;}
	.st4{fill:none;stroke:#6D6E71;stroke-width:2;stroke-linecap:round;stroke-linejoin:round;stroke-miterlimit:10;}
	.st5{fill:#808285;}
	.st6{enable-background:new    ;}
	.st7{fill:#6D6E71;}
	.st8{fill:#FFFFFF;stroke:#6D6E71;stroke-width:1.9999;stroke-miterlimit:9.9995;}
	.st9{fill:#FFFFFF;stroke:#6D6E71;stroke-width:1.9999;stroke-miterlimit:9.9996;}
	.st10{fill:#E6E7E8;stroke:#6D6E71;stroke-width:2;stroke-miterlimit:10;}
	.st11{fill:#A7A9AC;stroke:#808285;stroke-width:2;stroke-miterlimit:10;}
	.st12{fill:#FFFFFF;stroke:#6D6E71;stroke-width:2;stroke-linecap:round;stroke-linejoin:round;stroke-miterlimit:9.9998;}
	.st13{fill:#C49A6C;stroke:#6D6E71;stroke-width:2;stroke-linecap:round;stroke-linejoin:round;stroke-miterlimit:10;}
	.st14{fill:#00A79D;stroke:#6D6E71;stroke-width:2;stroke-linecap:round;stroke-linejoin:round;stroke-miterlimit:10;}
</style>
<g>
	<path class="st0" d="M232.3,238.8c0.4-2.9,8.3-13.3,2-14.2c-2.5-0.3-8.8,9.9-9.2,12.9c-0.2,1.7-0.4,8.6,1.3,11
		c1.2,1.7,4.2-0.8,5.2-0.7C234.1,248.1,231.9,241.7,232.3,238.8z"/>
	<path class="st0" d="M257.5,228.5c-2.5-0.6-4.1,0.6-4.8,3.5c-0.7,2.9-2.1,9.3,3.7,9c2.1-0.1,1.9-2.6,2.6-5.5
		C259.7,232.7,260,229.1,257.5,228.5z"/>
	<path class="st0" d="M249.8,228.2c-2.4-0.7-5,0.6-5.9,3.4s-0.2,8.8,2.7,9.7c3,0.9,4.3-2.4,5.1-5.2S252.3,228.9,249.8,228.2z"/>
	<path class="st0" d="M240.7,230c-2.1-0.5-4.2,0.8-4.8,3.4s0,7.9,2.6,8.5c2.5,0.6,3.5-2.4,4.2-5C243.3,234.3,242.8,230.5,240.7,230z
		"/>
</g>
<g>
	<path class="st1" d="M577.2,626.6c0,1-4,2-4,2.9c0,1,4,2,4,3c0,1-4,1.9-4.1,2.9c0,2.2,3.9,4.5,3.9,6.7c-0.1,2.2-4.2,4.2-4.4,6.4
		c-0.2,2.2,3.6,4.8,3.3,7c-0.3,2.4-4.9,3.7-5.8,5.8c-1,2.3,1.3,6.4,0.1,8.1c-2,2.8-6.5,1.9-7.4,2.3c-1,0.6,0.2,5-1.3,6.8
		c-1,1.2-5.3,0.2-6.4,1.8c-1,1.4,1.2,5.2,0.2,6.7c-1.5,2.2-6.4,2.1-8,4.2c-1.7,2.3-0.3,7.1-1.9,8.9c-2.3,2.6-6.4,1.2-8.2,1.5
		c-1.1,0.2-1.9,4.8-4.6,6c-1.7,0.7-5.2-2.1-7.3-1.1c-1.8,0.8-2,5.4-4,6.3c-1.7,0.8-5.3-2-7.1-1.1c-1.8,0.8-1.8,5.3-3.6,6.2
		c-1.8,0.9-5.3-1.9-7.1-1.1c-2.6,1.2-3.4,6.1-5.8,7.1c-2.8,1.3-7-1.3-9.2-0.3c-3.6,1.5-5.3,6.4-6.7,6.6c-1.3,0.2-5.2-3.6-9.3-3.3
		c-2.9,0.2-5.8,4.4-8.7,4.5c-4.1,0.2-7.9-3.6-9.3-3.4c-3.8,0.5-7.3,4.9-11.4,5.3c-3.9,0.4-8.2-3.3-12.3-2.9
		c-3.9,0.3-7.5,4.6-11.6,4.9c-1.8,0.1-3.9-3.8-5.8-3.7c-1.8,0.1-3.4,4.2-5.3,4.3c-1.8,0.1-3.9-3.8-5.7-3.7
		c-3.4,0.2-6.7,4.3-10.2,4.5c-3.4,0.1-7-3.8-10.5-3.7c-3.4,0.1-6.8,4.2-10.3,4.3c-2.1,0-5.8-3.9-9.8-3.8c-3.1,0.1-6.4,4.2-9.6,4.3
		c-4,0.1-7.6-3.8-9.8-3.8c-2.8,0-4.1,4.1-5.6,4.2c-1.6,0.1-3.4-3.6-6.1-3.3c-1.5,0.2-2.8,4.4-5.3,4.6c-1.8,0.2-4.1-3.6-6-3.4
		c-1.9,0.2-3.3,4.4-5.2,4.6c-1.9,0.2-4.1-3.6-6-3.5c-3.9,0.4-7.5,4.7-11.3,5c-4,0.3-8.2-3.5-11.9-3.3c-4.2,0.2-8.1,4.2-11.7,4.1
		c-1.5-0.1-2.9-4.1-4.4-4.2c-1.5-0.1-3.2,3.9-4.7,3.9c-1.5-0.1-2.9-4.1-4.4-4.2c-3-0.1-7.1,3.8-11.4,3.6c-3.7-0.1-7.4-4.3-11.1-4.5
		c-4.3-0.2-8.4,3.7-11.4,3.6c-4-0.2-7.5-4.3-11.1-4.5c-3.8-0.2-7.7,3.6-11.5,3.4c-3.7-0.2-7.2-4.4-11-4.7c-3.4-0.2-6.4,3.7-8.9,3.5
		c-3.1-0.2-5.5-4.4-8.4-4.7c-2.6-0.2-5.7,3.6-9,3.3c-2.7-0.2-5-4.5-7.6-4.8c-2.7-0.3-5.8,3.4-8.4,3.2c-2.7-0.3-4.8-4.6-7.4-5
		c-3.5-0.5-7.5,3.1-10.9,2.5c-3.5-0.5-6.3-5.1-9.6-5.7c-3.5-0.6-7.7,2.7-11,1.9c-2.2-0.5-4.3-5.2-7.8-6.2c-2.7-0.8-6.9,2.2-9.9,1.2
		c-3-0.9-4.7-5.7-7.5-6.6c-1.5-0.5-4.3,2.8-5.6,2.4c-1.6-0.5-1.8-4.9-3-5.3c-2-0.7-5,2.4-5.8,2.1c-1.8-0.8-1.9-5.5-4-6.8
		c-1.8-1.1-5.9,1-7.8-0.3c-1.8-1.3-1.3-5.9-3.1-7.2c-1.3-1-5.1,1.2-6.3,0.2c-1.3-1-0.1-5.2-1.4-6.2c-1.4-1.1-5.2,1-6.3,0
		c-0.7-0.6,1.2-4.2,0.6-4.7c-0.7-0.6-4,1.8-4.6,1.3c-1-0.9,1.3-4.3,1.1-4.6c-0.9-1.1-4.9,0.3-5.7-0.8c-0.8-1.1,1.8-4.5,1-5.6
		c-0.7-1.1-4.9-0.2-5.6-1.4c-0.8-1.4,2.1-4.6,1.4-6c-0.7-1.4-5-1.2-5.6-2.7c-0.6-1.4,2.6-4.3,2.1-5.8c-0.7-1.9-5.2-2.3-5.8-4.3
		c-0.5-1.6,2.9-4.3,2.6-6.7c-0.3-1.7-4.5-3.1-4.6-5.4c0-0.7,4-4,4-7.9c0-2.5-4-5.2-4-7.7c0-3.8,4-7.1,4-7.8
		c-0.1-1.7-4.2-2.9-4.2-4.1c-0.1-1.9,4-3.3,4-4.3c0.1-2.6-3.7-3.1-3.5-4.5c0.2-1.4,4.8-3.6,5.7-7.3c0.6-2.4-2.6-6.2-1.8-8.9
		c0.7-2.6,5.4-4.2,6.2-6.7c0.4-1.4-3-4-2.5-5.2c0.5-1.4,4.7-1.3,5.2-2.5c0.6-1.6-2.4-4.6-1.9-5.5c1.4-2.5,6.3-2.5,7.9-4.7
		c1.7-2.2,0.5-6.9,2.5-8.9c2-1.9,6.7-0.7,8.9-2.4c3-2.3,4.2-7.8,7.7-9.7c3.3-1.8,8.6,0.2,12.3-1.3c3.5-1.4,5.8-6.5,9.7-7.7
		c3.8-1.2,8.8,1.6,12.9,0.6c3.8-1,6.9-5.8,11-6.7c3.9-0.8,8.7,2.3,12.8,1.6c2.9-0.5,5.1-5,8.1-5.6c2.9-0.5,6.6,2.9,9.6,2.4
		c2.9-0.5,5.2-5,8.2-5.5c3.4-0.6,7.5,2.8,10.9,2.2c3.4-0.6,6.1-5.1,9.6-5.7c3.4-0.6,7.5,2.8,11,2.2c2.6-0.5,4.4-4.9,7.1-5.4
		c2.6-0.5,5.9,3,8.5,2.5c2.6-0.5,4.4-4.9,7-5.4c2.1-0.4,5.1,3.1,7.3,2.7c2.1-0.4,3.5-4.8,5.7-5.3c2.1-0.4,5.1,3,7.3,2.6
		c3.2-0.7,5.5-5.3,8.7-6.1c3.2-0.7,7.3,2.5,10.5,1.7c3.2-0.8,5.4-5.4,8.6-6.2c2-0.5,5.1,3,7.3,2.5c2.1-0.4,3.6-4.7,5.9-5
		c2.1-0.3,4.8,3.5,7.1,3.2c3.1-0.3,5.9-4.6,9.2-4.8c3.1-0.2,6.5,3.7,9.8,3.5c3.1-0.1,6.2-4.2,9.5-4.3c1.9,0,3.8,4,5.7,4
		c1.9,0,3.7-4,5.6-4c1.9,0,3.7,4,5.6,4.1c1.8,0,3.7-4,5.5-4c1.8,0,3.6,4.1,5.4,4.1c1.8,0,3.7-3.9,5.6-3.9c1.5,0,3,4.1,4.5,4.1
		c1.5,0,3.2-3.9,4.7-3.9c1.5,0,2.9,4.1,4.4,4.2c2.8,0.1,5.6-3.8,8.3-3.7c2.8,0.1,5.4,4.2,8,4.3c2.8,0.1,5.7-3.8,8.3-3.7
		c2.9,0.1,5.5,4.2,8.1,4.3c2.9,0.1,5.7-3.9,8.3-3.8c3.1,0,5.8,4.1,8.2,4c2.8-0.1,5.5-4.1,8.2-4.2c2.8,0,5.6,4,8.3,4
		c2.8,0,5.7-3.9,8.4-3.8c2.7,0.1,5.3,4.2,7.9,4.4c2.7,0.1,5.7-3.7,8.3-3.5c2.7,0.2,5.1,4.5,7.7,4.7c3.7,0.4,7.8-3.2,11.3-2.7
		c3.7,0.5,6.6,5.1,10.1,5.7c3.7,0.7,8-2.6,11.5-1.8c3.8,0.8,6.4,5.7,9.9,6.6c3.7,1,8.5-1.7,12-0.5c3.7,1.2,5.8,6.3,9.1,7.7
		c1.6,0.7,4.8-2.4,6.3-1.7c1.6,0.7,1.4,5.1,2.9,5.8c1.5,0.8,4.9-2,6.4-1.3c2.9,1.6,3.7,6.7,6.4,8.4c2.8,1.8,7.8,0.3,10.3,2.2
		c2.7,2,2.7,7.1,5,9.2c0.4,0.4,4.9-0.5,7,2.2c1.1,1.5-0.7,5.7,0.7,7.5c1.2,1.6,5.7,0.9,7.1,2.7c1.7,2.3,0.2,7.1,1.9,9.4
		c1.8,2.5,6.8,2.6,8.3,4.7c2.5,3.5,0.8,8.2,1.2,9.2c0.5,1.1,4.7,0.7,5.1,1.8c0.4,1.1-2.9,3.7-2.5,4.8c0.4,1.1,4.6,1,4.9,2.2
		c0.6,1.9-2.6,6.7-1.9,11.1c0.5,3.3,5.1,6.4,5.5,9.7C576.8,620.6,577.2,624.8,577.2,626.6z"/>
	<path class="st2" d="M577.2,626.6c0,1-4,2-4,2.9c0,1,4,2,4,3c0,1-4,1.9-4.1,2.9c0,2.2,3.9,4.5,3.9,6.7c-0.1,2.2-4.2,4.2-4.4,6.4
		c-0.2,2.2,3.6,4.8,3.3,7c-0.3,2.4-4.9,3.7-5.8,5.8c-1,2.3,1.3,6.4,0.1,8.1c-2,2.8-6.5,1.9-7.4,2.3c-1,0.6,0.2,5-1.3,6.8
		c-1,1.2-5.3,0.2-6.4,1.8c-1,1.4,1.2,5.2,0.2,6.7c-1.5,2.2-6.4,2.1-8,4.2c-1.7,2.3-0.3,7.1-1.9,8.9c-2.3,2.6-6.4,1.2-8.2,1.5
		c-1.1,0.2-1.9,4.8-4.6,6c-1.7,0.7-5.2-2.1-7.3-1.1c-1.8,0.8-2,5.4-4,6.3c-1.7,0.8-5.3-2-7.1-1.1c-1.8,0.8-1.8,5.3-3.6,6.2
		c-1.8,0.9-5.3-1.9-7.1-1.1c-2.6,1.2-3.4,6.1-5.8,7.1c-2.8,1.3-7-1.3-9.2-0.3c-3.6,1.5-5.3,6.4-6.7,6.6c-1.3,0.2-5.2-3.6-9.3-3.3
		c-2.9,0.2-5.8,4.4-8.7,4.5c-4.1,0.2-7.9-3.6-9.3-3.4c-3.8,0.5-7.3,4.9-11.4,5.3c-3.9,0.4-8.2-3.3-12.3-2.9
		c-3.9,0.3-7.5,4.6-11.6,4.9c-1.8,0.1-3.9-3.8-5.8-3.7c-1.8,0.1-3.4,4.2-5.3,4.3c-1.8,0.1-3.9-3.8-5.7-3.7
		c-3.4,0.2-6.7,4.3-10.2,4.5c-3.4,0.1-7-3.8-10.5-3.7c-3.4,0.1-6.8,4.2-10.3,4.3c-2.1,0-5.8-3.9-9.8-3.8c-3.1,0.1-6.4,4.2-9.6,4.3
		c-4,0.1-7.6-3.8-9.8-3.8c-2.8,0-4.1,4.1-5.6,4.2c-1.6,0.1-3.4-3.6-6.1-3.3c-1.5,0.2-2.8,4.4-5.3,4.6c-1.8,0.2-4.1-3.6-6-3.4
		c-1.9,0.2-3.3,4.4-5.2,4.6c-1.9,0.2-4.1-3.6-6-3.5c-3.9,0.4-7.5,4.7-11.3,5c-4,0.3-8.2-3.5-11.9-3.3c-4.2,0.2-8.1,4.2-11.7,4.1
		c-1.5-0.1-2.9-4.1-4.4-4.2c-1.5-0.1-3.2,3.9-4.7,3.9c-1.5-0.1-2.9-4.1-4.4-4.2c-3-0.1-7.1,3.8-11.4,3.6c-3.7-0.1-7.4-4.3-11.1-4.5
		c-4.3-0.2-8.4,3.7-11.4,3.6c-4-0.2-7.5-4.3-11.1-4.5c-3.8-0.2-7.7,3.6-11.5,3.4c-3.7-0.2-7.2-4.4-11-4.7c-3.4-0.2-6.4,3.7-8.9,3.5
		c-3.1-0.2-5.5-4.4-8.4-4.7c-2.6-0.2-5.7,3.6-9,3.3c-2.7-0.2-5-4.5-7.6-4.8c-2.7-0.3-5.8,3.4-8.4,3.2c-2.7-0.3-4.8-4.6-7.4-5
		c-3.5-0.5-7.5,3.1-10.9,2.5c-3.5-0.5-6.3-5.1-9.6-5.7c-3.5-0.6-7.7,2.7-11,1.9c-2.2-0.5-4.3-5.2-7.8-6.2c-2.7-0.8-6.9,2.2-9.9,1.2
		c-3-0.9-4.7-5.7-7.5-6.6c-1.5-0.5-4.3,2.8-5.6,2.4c-1.6-0.5-1.8-4.9-3-5.3c-2-0.7-5,2.4-5.8,2.1c-1.8-0.8-1.9-5.5-4-6.8
		c-1.8-1.1-5.9,1-7.8-0.3c-1.8-1.3-1.3-5.9-3.1-7.2c-1.3-1-5.1,1.2-6.3,0.2c-1.3-1-0.1-5.2-1.4-6.2c-1.4-1.1-5.2,1-6.3,0
		c-0.7-0.6,1.2-4.2,0.6-4.7c-0.7-0.6-4,1.8-4.6,1.3c-1-0.9,1.3-4.3,1.1-4.6c-0.9-1.1-4.9,0.3-5.7-0.8c-0.8-1.1,1.8-4.5,1-5.6
		c-0.7-1.1-4.9-0.2-5.6-1.4c-0.8-1.4,2.1-4.6,1.4-6c-0.7-1.4-5-1.2-5.6-2.7c-0.6-1.4,2.6-4.3,2.1-5.8c-0.7-1.9-5.2-2.3-5.8-4.3
		c-0.5-1.6,2.9-4.3,2.6-6.7c-0.3-1.7-4.5-3.1-4.6-5.4c0-0.7,4-4,4-7.9c0-2.5-4-5.2-4-7.7c0-3.8,4-7.1,4-7.8
		c-0.1-1.7-4.2-2.9-4.2-4.1c-0.1-1.9,4-3.3,4-4.3c0.1-2.6-3.7-3.1-3.5-4.5c0.2-1.4,4.8-3.6,5.7-7.3c0.6-2.4-2.6-6.2-1.8-8.9
		c0.7-2.6,5.4-4.2,6.2-6.7c0.4-1.4-3-4-2.5-5.2c0.5-1.4,4.7-1.3,5.2-2.5c0.6-1.6-2.4-4.6-1.9-5.5c1.4-2.5,6.3-2.5,7.9-4.7
		c1.7-2.2,0.5-6.9,2.5-8.9c2-1.9,6.7-0.7,8.9-2.4c3-2.3,4.2-7.8,7.7-9.7c3.3-1.8,8.6,0.2,12.3-1.3c3.5-1.4,5.8-6.5,9.7-7.7
		c3.8-1.2,8.8,1.6,12.9,0.6c3.8-1,6.9-5.8,11-6.7c3.9-0.8,8.7,2.3,12.8,1.6c2.9-0.5,5.1-5,8.1-5.6c2.9-0.5,6.6,2.9,9.6,2.4
		c2.9-0.5,5.2-5,8.2-5.5c3.4-0.6,7.5,2.8,10.9,2.2c3.4-0.6,6.1-5.1,9.6-5.7c3.4-0.6,7.5,2.8,11,2.2c2.6-0.5,4.4-4.9,7.1-5.4
		c2.6-0.5,5.9,3,8.5,2.5c2.6-0.5,4.4-4.9,7-5.4c2.1-0.4,5.1,3.1,7.3,2.7c2.1-0.4,3.5-4.8,5.7-5.3c2.1-0.4,5.1,3,7.3,2.6
		c3.2-0.7,5.5-5.3,8.7-6.1c3.2-0.7,7.3,2.5,10.5,1.7c3.2-0.8,5.4-5.4,8.6-6.2c2-0.5,5.1,3,7.3,2.5c2.1-0.4,3.6-4.7,5.9-5
		c2.1-0.3,4.8,3.5,7.1,3.2c3.1-0.3,5.9-4.6,9.2-4.8c3.1-0.2,6.5,3.7,9.8,3.5c3.1-0.1,6.2-4.2,9.5-4.3c1.9,0,3.8,4,5.7,4
		c1.9,0,3.7-4,5.6-4c1.9,0,3.7,4,5.6,4.1c1.8,0,3.7-4,5.5-4c1.8,0,3.6,4.1,5.4,4.1c1.8,0,3.7-3.9,5.6-3.9c1.5,0,3,4.1,4.5,4.1
		c1.5,0,3.2-3.9,4.7-3.9c1.5,0,2.9,4.1,4.4,4.2c2.8,0.1,5.6-3.8,8.3-3.7c2.8,0.1,5.4,4.2,8,4.3c2.8,0.1,5.7-3.8,8.3-3.7
		c2.9,0.1,5.5,4.2,8.1,4.3c2.9,0.1,5.7-3.9,8.3-3.8c3.1,0,5.8,4.1,8.2,4c2.8-0.1,5.5-4.1,8.2-4.2c2.8,0,5.6,4,8.3,4
		c2.8,0,5.7-3.9,8.4-3.8c2.7,0.1,5.3,4.2,7.9,4.4c2.7,0.1,5.7-3.7,8.3-3.5c2.7,0.2,5.1,4.5,7.7,4.7c3.7,0.4,7.8-3.2,11.3-2.7
		c3.7,0.5,6.6,5.1,10.1,5.7c3.7,0.7,8-2.6,11.5-1.8c3.8,0.8,6.4,5.7,9.9,6.6c3.7,1,8.5-1.7,12-0.5c3.7,1.2,5.8,6.3,9.1,7.7
		c1.6,0.7,4.8-2.4,6.3-1.7c1.6,0.7,1.4,5.1,2.9,5.8c1.5,0.8,4.9-2,6.4-1.3c2.9,1.6,3.7,6.7,6.4,8.4c2.8,1.8,7.8,0.3,10.3,2.2
		c2.7,2,2.7,7.1,5,9.2c0.4,0.4,4.9-0.5,7,2.2c1.1,1.5-0.7,5.7,0.7,7.5c1.2,1.6,5.7,0.9,7.1,2.7c1.7,2.3,0.2,7.1,1.9,9.4
		c1.8,2.5,6.8,2.6,8.3,4.7c2.5,3.5,0.8,8.2,1.2,9.2c0.5,1.1,4.7,0.7,5.1,1.8c0.4,1.1-2.9,3.7-2.5,4.8c0.4,1.1,4.6,1,4.9,2.2
		c0.6,1.9-2.6,6.7-1.9,11.1c0.5,3.3,5.1,6.4,5.5,9.7C576.8,620.6,577.2,624.8,577.2,626.6z"/>
</g>
<g>
	<path class="st1" d="M482.7,620.6c0,0.7-4,1.3-4,2c0,0.7,4,1.3,4,2c0,0.7-4,1.3-4,1.9c0,1.5,4,3.1,3.9,4.6
		c-0.1,1.5-4.2,2.8-4.3,4.2c-0.1,1.5,3.7,3.4,3.6,4.8c-0.2,1.6-4.5,2.1-5.1,3.6c-0.7,1.6,2,4.9,1.2,6.1c-1.3,1.9-5.2,0.3-5.8,0.6
		c-0.7,0.4,0.9,4.3-0.1,5.5c-0.7,0.8-4.6-0.6-5.4,0.4c-0.7,0.9,1.9,4.3,1.2,5.3c-1,1.5-5.4,0.6-6.4,2.1c-1.2,1.6,0.8,5.6-0.3,6.8
		c-1.6,1.8-4.9-0.3-6.2-0.1c-0.7,0.1-0.9,4.5-2.7,5.3c-1.1,0.5-4.1-2.6-5.5-2c-1.2,0.6-0.8,4.8-2.1,5.4c-1.2,0.6-4.1-2.5-5.3-1.9
		c-1.2,0.6-0.7,4.8-1.9,5.4c-1.2,0.6-4.1-2.5-5.3-1.9c-1.7,0.8-1.8,5.3-3.4,6c-1.9,0.8-5.2-2.1-6.7-1.4c-2.4,1-3.2,5.6-4.2,5.7
		c-0.9,0.1-3.6-3.7-6.4-3.6c-1.9,0.1-3.8,4.3-5.8,4.4c-2.7,0.2-5.5-3.7-6.4-3.6c-2.6,0.3-4.8,4.6-7.5,4.9c-2.6,0.3-5.6-3.5-8.4-3.3
		c-2.6,0.2-5,4.4-7.7,4.6c-1.2,0.1-2.7-3.9-4-3.8c-1.2,0.1-2.2,4.2-3.5,4.2c-1.2,0.1-2.7-3.9-3.9-3.8c-2.3,0.1-4.4,4.2-6.8,4.3
		c-2.3,0.1-4.7-3.9-7.1-3.8c-2.3,0.1-4.5,4.1-6.9,4.2c-1.4,0-3.9-3.9-6.6-3.8c-2.1,0.1-4.3,4.2-6.4,4.2c-2.7,0.1-5.2-3.9-6.6-3.9
		c-1.9,0-2.7,4.1-3.7,4.2c-1.1,0.1-2.5-3.7-4.3-3.5c-1,0.1-1.8,4.3-3.4,4.4c-1.2,0.1-2.9-3.8-4.2-3.6c-1.2,0.1-2.1,4.3-3.4,4.4
		c-1.3,0.1-2.9-3.8-4.2-3.6c-2.6,0.3-4.9,4.5-7.5,4.7c-2.7,0.2-5.6-3.6-8.1-3.5c-2.8,0.1-5.4,4.2-7.9,4.1c-1,0-1.9-4.1-2.9-4.1
		c-1,0-2.2,3.9-3.2,3.9c-1,0-1.9-4.1-2.9-4.1c-2-0.1-4.8,3.8-7.7,3.7c-2.5-0.1-4.9-4.2-7.4-4.3c-2.9-0.1-5.7,3.8-7.7,3.7
		c-2.7-0.1-5-4.2-7.4-4.4c-2.6-0.1-5.3,3.8-7.8,3.6c-2.5-0.1-4.7-4.3-7.4-4.4c-2.3-0.1-4.4,3.8-6.1,3.7c-2.1-0.1-3.6-4.3-5.5-4.5
		c-1.7-0.1-3.9,3.7-6.2,3.5c-1.8-0.2-3.2-4.3-5-4.5c-1.8-0.2-4,3.6-5.8,3.4c-1.8-0.2-3.1-4.4-4.9-4.6c-2.4-0.3-5.2,3.4-7.5,3
		c-2.4-0.4-4-4.7-6.3-5.1c-2.3-0.4-5.4,3.1-7.7,2.6c-1.5-0.3-2.6-4.8-5-5.5c-1.8-0.5-5,2.7-7,2.1c-2-0.6-2.8-5.1-4.6-5.7
		c-1-0.3-3.3,3.2-4.2,2.8c-1.1-0.4-0.8-4.5-1.6-4.8c-1.4-0.5-3.9,2.9-4.4,2.6c-1.2-0.5-0.7-4.8-2.1-5.7c-1.2-0.7-4.7,1.8-6,0.9
		c-1.2-0.8-0.1-5-1.3-5.9c-0.9-0.7-4.2,1.9-5.1,1.2c-0.9-0.7,0.7-4.5-0.1-5.2c-0.9-0.7-4.3,1.7-5.1,1c-0.5-0.4,1.7-3.8,1.3-4.2
		c-0.5-0.4-3.6,2.2-4,1.9c-0.6-0.6,1.8-3.8,1.7-4c-0.6-0.7-4.3,1-4.9,0.3c-0.5-0.7,2.3-3.8,1.8-4.5c-0.5-0.8-4.4,0.5-4.9-0.3
		c-0.5-0.9,2.6-3.7,2.1-4.7c-0.5-0.9-4.6-0.3-5-1.2c-0.4-1,3-3.4,2.7-4.4c-0.4-1.3-4.7-1.2-5.2-2.5c-0.3-1.1,3.3-3.2,3-4.8
		c-0.2-1.1-4.3-2-4.4-3.5c0-0.5,4-2.8,4-5.3c0-1.7-4-3.5-4-5.2c0-2.6,4-4.8,4-5.3c-0.1-1.1-4.1-1.9-4.1-2.7c0-1.3,4-2.2,4-2.9
		c0-1.8-3.8-2.2-3.7-3.1c0.1-1,4.5-2.2,5.1-4.7c0.4-1.6-3-4.5-2.5-6.4c0.5-1.8,4.9-2.4,5.4-4.1c0.3-0.9-3.2-3.1-2.9-3.9
		c0.3-1,4.4-0.5,4.7-1.2c0.4-1.1-2.8-3.7-2.5-4.3c0.9-1.7,5.3-1,6.4-2.4c1.1-1.5-0.6-5.5,0.7-6.8c1.3-1.3,5.4,0.5,6.9-0.6
		c2-1.6,2.1-6.3,4.5-7.6c2.2-1.2,6.3,1.3,8.9,0.3c2.4-0.9,3.5-5.6,6.1-6.4c2.5-0.8,6.3,2.4,9,1.7c2.6-0.6,4.3-5.2,7.1-5.8
		c2.6-0.5,6.1,2.9,8.9,2.3c1.9-0.4,3.2-4.7,5.2-5c2-0.3,4.6,3.3,6.7,2.9c2-0.3,3.3-4.6,5.3-5c2.3-0.4,5.2,3.2,7.6,2.8
		c2.3-0.4,3.9-4.7,6.2-5.1c2.3-0.4,5.3,3.2,7.6,2.8c1.7-0.3,2.8-4.6,4.5-4.9c1.7-0.3,4.2,3.3,6,3c1.7-0.3,2.7-4.6,4.5-5
		c1.4-0.3,3.7,3.4,5.1,3.1c1.4-0.3,2.1-4.5,3.6-4.8c1.4-0.3,3.7,3.3,5.2,3c2.1-0.5,3.4-4.9,5.6-5.4c2.1-0.5,5.2,2.9,7.4,2.4
		c2.1-0.5,3.3-4.9,5.5-5.5c1.4-0.3,3.7,3.3,5.2,3c1.4-0.3,2.3-4.5,3.8-4.7c1.4-0.2,3.4,3.6,4.9,3.5c2.1-0.2,3.9-4.4,6.1-4.5
		c2.1-0.1,4.5,3.8,6.7,3.7c2.1-0.1,4.2-4.2,6.3-4.2c1.3,0,2.6,4,3.8,4c1.3,0,2.5-4,3.8-4c1.3,0,2.5,4,3.8,4c1.2,0,2.5-4,3.7-4
		c1.2,0,2.4,4.1,3.6,4.1c1.2,0,2.5-4,3.8-3.9c1,0,2,4.1,3,4.1c1,0,2.2-4,3.2-3.9c1,0,1.9,4.1,3,4.1c1.9,0.1,3.8-3.9,5.6-3.8
		c1.9,0.1,3.6,4.2,5.4,4.2c1.9,0.1,3.9-3.9,5.6-3.8c1.9,0.1,3.6,4.2,5.4,4.2c2,0.1,3.9-3.9,5.6-3.9c2.1,0,3.9,4.1,5.5,4
		c1.9,0,3.7-4.1,5.5-4.1c1.9,0,3.7,4,5.6,4c1.9,0,3.8-4,5.7-3.9c1.8,0.1,3.5,4.2,5.3,4.3c1.8,0.1,3.9-3.8,5.7-3.7
		c1.8,0.1,3.3,4.3,5.1,4.5c2.5,0.3,5.4-3.5,7.8-3.1c2.5,0.3,4.3,4.7,6.6,5.1c2.5,0.4,5.7-3,8-2.5c2.5,0.6,4,5.1,6.4,5.7
		c2.5,0.7,6.1-2.4,8.4-1.6c2.5,0.8,3.4,5.5,5.7,6.4c1.1,0.4,3.7-2.8,4.8-2.3c1.1,0.5,0.4,4.6,1.4,5.1c1,0.5,3.9-2.5,4.9-2
		c2,1.1,1.8,5.6,3.6,6.8c1.9,1.2,6-0.9,7.7,0.4c1.8,1.3,1,5.8,2.6,7.2c0.3,0.3,4.2-1.2,5.6,0.6c0.8,1-1.5,4.6-0.6,5.9
		c0.8,1.1,4.9-0.2,5.8,1c1.2,1.6-0.9,5.5,0.2,7.1c1.2,1.7,5.7,1,6.7,2.4c1.7,2.4-0.6,6.2-0.3,6.9c0.3,0.8,4.4,0,4.6,0.7
		c0.3,0.8-3.2,2.9-2.9,3.7c0.3,0.8,4.3,0.3,4.6,1.1c0.4,1.3-3,4.8-2.5,7.8c0.4,2.2,4.7,4.1,5,6.3
		C482.4,616.4,482.7,619.4,482.7,620.6z"/>
	<path class="st2" d="M482.7,620.6c0,0.7-4,1.3-4,2c0,0.7,4,1.3,4,2c0,0.7-4,1.3-4,1.9c0,1.5,4,3.1,3.9,4.6
		c-0.1,1.5-4.2,2.8-4.3,4.2c-0.1,1.5,3.7,3.4,3.6,4.8c-0.2,1.6-4.5,2.1-5.1,3.6c-0.7,1.6,2,4.9,1.2,6.1c-1.3,1.9-5.2,0.3-5.8,0.6
		c-0.7,0.4,0.9,4.3-0.1,5.5c-0.7,0.8-4.6-0.6-5.4,0.4c-0.7,0.9,1.9,4.3,1.2,5.3c-1,1.5-5.4,0.6-6.4,2.1c-1.2,1.6,0.8,5.6-0.3,6.8
		c-1.6,1.8-4.9-0.3-6.2-0.1c-0.7,0.1-0.9,4.5-2.7,5.3c-1.1,0.5-4.1-2.6-5.5-2c-1.2,0.6-0.8,4.8-2.1,5.4c-1.2,0.6-4.1-2.5-5.3-1.9
		c-1.2,0.6-0.7,4.8-1.9,5.4c-1.2,0.6-4.1-2.5-5.3-1.9c-1.7,0.8-1.8,5.3-3.4,6c-1.9,0.8-5.2-2.1-6.7-1.4c-2.4,1-3.2,5.6-4.2,5.7
		c-0.9,0.1-3.6-3.7-6.4-3.6c-1.9,0.1-3.8,4.3-5.8,4.4c-2.7,0.2-5.5-3.7-6.4-3.6c-2.6,0.3-4.8,4.6-7.5,4.9c-2.6,0.3-5.6-3.5-8.4-3.3
		c-2.6,0.2-5,4.4-7.7,4.6c-1.2,0.1-2.7-3.9-4-3.8c-1.2,0.1-2.2,4.2-3.5,4.2c-1.2,0.1-2.7-3.9-3.9-3.8c-2.3,0.1-4.4,4.2-6.8,4.3
		c-2.3,0.1-4.7-3.9-7.1-3.8c-2.3,0.1-4.5,4.1-6.9,4.2c-1.4,0-3.9-3.9-6.6-3.8c-2.1,0.1-4.3,4.2-6.4,4.2c-2.7,0.1-5.2-3.9-6.6-3.9
		c-1.9,0-2.7,4.1-3.7,4.2c-1.1,0.1-2.5-3.7-4.3-3.5c-1,0.1-1.8,4.3-3.4,4.4c-1.2,0.1-2.9-3.8-4.2-3.6c-1.2,0.1-2.1,4.3-3.4,4.4
		c-1.3,0.1-2.9-3.8-4.2-3.6c-2.6,0.3-4.9,4.5-7.5,4.7c-2.7,0.2-5.6-3.6-8.1-3.5c-2.8,0.1-5.4,4.2-7.9,4.1c-1,0-1.9-4.1-2.9-4.1
		c-1,0-2.2,3.9-3.2,3.9c-1,0-1.9-4.1-2.9-4.1c-2-0.1-4.8,3.8-7.7,3.7c-2.5-0.1-4.9-4.2-7.4-4.3c-2.9-0.1-5.7,3.8-7.7,3.7
		c-2.7-0.1-5-4.2-7.4-4.4c-2.6-0.1-5.3,3.8-7.8,3.6c-2.5-0.1-4.7-4.3-7.4-4.4c-2.3-0.1-4.4,3.8-6.1,3.7c-2.1-0.1-3.6-4.3-5.5-4.5
		c-1.7-0.1-3.9,3.7-6.2,3.5c-1.8-0.2-3.2-4.3-5-4.5c-1.8-0.2-4,3.6-5.8,3.4c-1.8-0.2-3.1-4.4-4.9-4.6c-2.4-0.3-5.2,3.4-7.5,3
		c-2.4-0.4-4-4.7-6.3-5.1c-2.3-0.4-5.4,3.1-7.7,2.6c-1.5-0.3-2.6-4.8-5-5.5c-1.8-0.5-5,2.7-7,2.1c-2-0.6-2.8-5.1-4.6-5.7
		c-1-0.3-3.3,3.2-4.2,2.8c-1.1-0.4-0.8-4.5-1.6-4.8c-1.4-0.5-3.9,2.9-4.4,2.6c-1.2-0.5-0.7-4.8-2.1-5.7c-1.2-0.7-4.7,1.8-6,0.9
		c-1.2-0.8-0.1-5-1.3-5.9c-0.9-0.7-4.2,1.9-5.1,1.2c-0.9-0.7,0.7-4.5-0.1-5.2c-0.9-0.7-4.3,1.7-5.1,1c-0.5-0.4,1.7-3.8,1.3-4.2
		c-0.5-0.4-3.6,2.2-4,1.9c-0.6-0.6,1.8-3.8,1.7-4c-0.6-0.7-4.3,1-4.9,0.3c-0.5-0.7,2.3-3.8,1.8-4.5c-0.5-0.8-4.4,0.5-4.9-0.3
		c-0.5-0.9,2.6-3.7,2.1-4.7c-0.5-0.9-4.6-0.3-5-1.2c-0.4-1,3-3.4,2.7-4.4c-0.4-1.3-4.7-1.2-5.2-2.5c-0.3-1.1,3.3-3.2,3-4.8
		c-0.2-1.1-4.3-2-4.4-3.5c0-0.5,4-2.8,4-5.3c0-1.7-4-3.5-4-5.2c0-2.6,4-4.8,4-5.3c-0.1-1.1-4.1-1.9-4.1-2.7c0-1.3,4-2.2,4-2.9
		c0-1.8-3.8-2.2-3.7-3.1c0.1-1,4.5-2.2,5.1-4.7c0.4-1.6-3-4.5-2.5-6.4c0.5-1.8,4.9-2.4,5.4-4.1c0.3-0.9-3.2-3.1-2.9-3.9
		c0.3-1,4.4-0.5,4.7-1.2c0.4-1.1-2.8-3.7-2.5-4.3c0.9-1.7,5.3-1,6.4-2.4c1.1-1.5-0.6-5.5,0.7-6.8c1.3-1.3,5.4,0.5,6.9-0.6
		c2-1.6,2.1-6.3,4.5-7.6c2.2-1.2,6.3,1.3,8.9,0.3c2.4-0.9,3.5-5.6,6.1-6.4c2.5-0.8,6.3,2.4,9,1.7c2.6-0.6,4.3-5.2,7.1-5.8
		c2.6-0.5,6.1,2.9,8.9,2.3c1.9-0.4,3.2-4.7,5.2-5c2-0.3,4.6,3.3,6.7,2.9c2-0.3,3.3-4.6,5.3-5c2.3-0.4,5.2,3.2,7.6,2.8
		c2.3-0.4,3.9-4.7,6.2-5.1c2.3-0.4,5.3,3.2,7.6,2.8c1.7-0.3,2.8-4.6,4.5-4.9c1.7-0.3,4.2,3.3,6,3c1.7-0.3,2.7-4.6,4.5-5
		c1.4-0.3,3.7,3.4,5.1,3.1c1.4-0.3,2.1-4.5,3.6-4.8c1.4-0.3,3.7,3.3,5.2,3c2.1-0.5,3.4-4.9,5.6-5.4c2.1-0.5,5.2,2.9,7.4,2.4
		c2.1-0.5,3.3-4.9,5.5-5.5c1.4-0.3,3.7,3.3,5.2,3c1.4-0.3,2.3-4.5,3.8-4.7c1.4-0.2,3.4,3.6,4.9,3.5c2.1-0.2,3.9-4.4,6.1-4.5
		c2.1-0.1,4.5,3.8,6.7,3.7c2.1-0.1,4.2-4.2,6.3-4.2c1.3,0,2.6,4,3.8,4c1.3,0,2.5-4,3.8-4c1.3,0,2.5,4,3.8,4c1.2,0,2.5-4,3.7-4
		c1.2,0,2.4,4.1,3.6,4.1c1.2,0,2.5-4,3.8-3.9c1,0,2,4.1,3,4.1c1,0,2.2-4,3.2-3.9c1,0,1.9,4.1,3,4.1c1.9,0.1,3.8-3.9,5.6-3.8
		c1.9,0.1,3.6,4.2,5.4,4.2c1.9,0.1,3.9-3.9,5.6-3.8c1.9,0.1,3.6,4.2,5.4,4.2c2,0.1,3.9-3.9,5.6-3.9c2.1,0,3.9,4.1,5.5,4
		c1.9,0,3.7-4.1,5.5-4.1c1.9,0,3.7,4,5.6,4c1.9,0,3.8-4,5.7-3.9c1.8,0.1,3.5,4.2,5.3,4.3c1.8,0.1,3.9-3.8,5.7-3.7
		c1.8,0.1,3.3,4.3,5.1,4.5c2.5,0.3,5.4-3.5,7.8-3.1c2.5,0.3,4.3,4.7,6.6,5.1c2.5,0.4,5.7-3,8-2.5c2.5,0.6,4,5.1,6.4,5.7
		c2.5,0.7,6.1-2.4,8.4-1.6c2.5,0.8,3.4,5.5,5.7,6.4c1.1,0.4,3.7-2.8,4.8-2.3c1.1,0.5,0.4,4.6,1.4,5.1c1,0.5,3.9-2.5,4.9-2
		c2,1.1,1.8,5.6,3.6,6.8c1.9,1.2,6-0.9,7.7,0.4c1.8,1.3,1,5.8,2.6,7.2c0.3,0.3,4.2-1.2,5.6,0.6c0.8,1-1.5,4.6-0.6,5.9
		c0.8,1.1,4.9-0.2,5.8,1c1.2,1.6-0.9,5.5,0.2,7.1c1.2,1.7,5.7,1,6.7,2.4c1.7,2.4-0.6,6.2-0.3,6.9c0.3,0.8,4.4,0,4.6,0.7
		c0.3,0.8-3.2,2.9-2.9,3.7c0.3,0.8,4.3,0.3,4.6,1.1c0.4,1.3-3,4.8-2.5,7.8c0.4,2.2,4.7,4.1,5,6.3
		C482.4,616.4,482.7,619.4,482.7,620.6z"/>
</g>
<g>
	<path class="st3" d="M257.9,68.9c10.7,2.9,32.4,17,46.1,24.5c7.7,2.8,10.1,0.4,11,0.3c5.2-0.2,5.1-2.1,8.3-3.7
		c17.8-12.6,34.3-24.3,46.5-22.8c20.3,2.4,20.8,22.4,16,42.9c-6.4,27.6-41.4,12.4-57.3,10.5c-13.1-1.6-4.6,10.2-14.2-7.3
		c-2.7,19.4-44.1,21.3-61,21.8C232.1,135.8,227.4,60.6,257.9,68.9z"/>
	<path class="st3" d="M305.5,106.7c0.8,6.7,4.7,10.2,9.5,9.6c4.8-0.5,8.2-5.1,7-11.8c-1.1-5.7-3.7-13.3-10-11.2
		C307.4,94.8,304.8,99.9,305.5,106.7z"/>
</g>
<g>
	<path class="st3" d="M382,88.5c1.8-1.8,4.3-2.8,6.7-2.8c-0.7-5.9-2.8-10.8-6.8-14.2c-0.2,2.1-1.1,4.1-2.7,5.7
		c-3.8,3.8-10.2,3.7-14,0.4c-2.8-2.5-3.6-6.5-2.3-10c-7.5,1.8-16.2,6.7-25.4,12.9c0.3,0.2,0.7,0.5,1,0.7c3.8,3.4,4,9.5,0.2,13.3
		s-10.2,3.7-14,0.4c-1.2-1.1-2.1-2.5-2.5-3.9c-1.4,1-2.2,2-5,2.4c3.2,1.8,4.8,6.9,5.6,10.9c1.2,6.2-1.8,10.6-6.1,11.6
		c6.8,12.6,1,3.9,10.9,4.3c0-2.5,0.9-5,2.8-6.9c3.8-3.8,10-3.7,13.9-0.3c3.1,2.7,3.8,7.3,2,10.9c8.4,1.8,17.5,3.3,25,1.6
		c-2.8-3.5-2.5-8.8,0.9-12.2c3.7-3.7,9.7-3.7,13.5-0.6c0.3-0.9,0.6-1.8,0.8-2.9c0.4-1.8,0.8-3.7,1.1-5.5c-2.1-0.2-4-1-5.6-2.4
		C378.2,98.4,378.2,92.2,382,88.5z M366.3,101.5c-3.8,3.8-10.2,3.7-14,0.4s-3.9-9.6-0.1-13.4c3.8-3.8,10-3.7,13.9-0.3
		C369.9,91.5,370.1,97.7,366.3,101.5z"/>
	<path class="st3" d="M306.2,106.3c-0.6-5.4,0.9-9.7,3.9-12c-1.4-0.1-3.2-0.5-5.4-1.3c-7.8-4.3-18.1-10.6-27.5-15.9
		c-0.5,1.2-1.2,2.3-2.1,3.2c-3.8,3.8-10.2,3.7-14,0.4c-3.4-3-3.8-8.1-1.3-11.9c-0.4-0.1-0.8-0.3-1.2-0.4
		c-9.6-2.6-15.7,3.1-18.9,12.2c1.1,0.4,2.1,1,3,1.8c3.8,3.4,4,9.5,0.2,13.3c-1.6,1.6-3.8,2.6-6,2.8c0,17.7,6.4,36.5,17.1,36.2
		c6.8-0.2,17.7-0.7,28.3-2.4c-0.1-0.1-0.1-0.1-0.2-0.2c-3.8-3.4-3.9-9.6-0.1-13.4c3.8-3.8,10-3.7,13.9-0.3c2.8,2.5,3.7,6.5,2.4,9.9
		c7.6-2.7,13.7-6.7,15.9-12.5C310.1,115.7,306.9,112.4,306.2,106.3z M261.2,122.5c-3.8,3.8-10.2,3.7-14,0.4s-3.9-9.6-0.1-13.4
		c3.8-3.8,10-3.7,13.9-0.3C264.8,112.6,265,118.7,261.2,122.5z M288.5,103.8c-3.8,3.8-10.2,3.7-14,0.4s-3.9-9.6-0.1-13.4
		c3.8-3.8,10-3.7,13.9-0.3C292.1,93.9,292.3,100,288.5,103.8z"/>
</g>
<path class="st3" d="M195.1,616.1c2.9,6.7,24.3,6.6,43.2,5.2c18.1-1.4,37.4-2.9,32.9-20.8c-5.1-20.1,33.4-80.1,21.6-117.4
	c-17.7-56.1,4.9-73.5-14.1-75.4c-19-1.9-22.3,13.9-22.3,69.4c0,23.3-10.1,92.1-13.3,107.4c-2.1,9.9-20.7,14.1-26,15.6
	C209.7,602.2,191.8,608.7,195.1,616.1z"/>
<path class="st3" d="M314.2,639.8c17.7,0,15.3,2.2,31.1-8.3c16-10.7,21.8-24.6,17.5-31.3c-11-17.6,18.5-81.8-9.1-119.3
	c-34.9-47.3-17.3-71.7-36-67.8c-18.7,3.9-24.2,22.7-0.6,72.9c11.1,23.6,17.9,90.9,19.4,106.5c1,10.1-10.9,13.7-20.5,22.5
	C310.4,620.2,301.2,639.8,314.2,639.8z"/>
<path class="st3" d="M301.8,641.2c-3.7-14.4,19.7-32.4,23.7-34.4c1.5-0.8-3,3.5-1.8,8.3c3.3,13.2,13.8,5.6,26.7-4.2
	c7.6-5.8,11.9-9.1,12.3-13.1c0.1-1,1,1.6,1.1,0.7c0.6,0.5,1.1,0.9,1.5,1.2c17.1,12.2,0.7,24.4-24.1,41.8c-11.1,7.8-24.3,11.6-31,9.1
	C305.5,648.6,302.7,644.9,301.8,641.2z"/>
<path class="st3" d="M333.9,607.6c8.5,6.7,5.9,14.7,14,10.5c6.1-3.2-5.1-13.8-7.9-16.6c-1-1-3.8-3.9-4.8-3.1c-2.4,1.9-3,2.5-7.1,5.5
	C326.1,605.4,330.7,605.2,333.9,607.6z"/>
<path class="st4" d="M301.5,639.8c10,26.1,78.4-31,66.6-37.8"/>
<path class="st3" d="M270.4,599.4c-0.5,0.9-2,8.5-25.5,9.2c-0.5,0-1.1,0-1.7,0.1c-1.1-2.5-4.5-5.4-5.9-11.6c-0.8-3.9,1.4-8-0.7-6.9
	c-4.5,2.3-5.4,2.7-8.1,4c-1.2,0.6,0.2,4.3,0.6,5.7c0.6,1.8,2,6,3.8,9.6c-10.2,0.6-17.7-0.1-9.7-12c3-4.5-27.5,12-30.8,15.7
	c-2.9,3.3-3.9,7.4-0.2,10.6c5.7,5,22.3,4,34.6,4.2c27.1,0.4,45-4.4,47.1-7.4C280.5,611.6,270.6,599.8,270.4,599.4z"/>
<path class="st4" d="M190.5,616.6c2,9.6,88.9,5.7,85.3-4.4"/>
<path class="st3" d="M406.4,477.5c-5.2-43.9-27.9-112.5-52.5-163.5c-1.4-3,20.5,7.8,26.3-0.1c3.6-4.8,2.2-16.6,2.2-16.6
	s-11.6-60.8-58.6-63.5c-31.4-1.8-75.6,27.3-75.6,55.9c0,5.6,1.4,10.7,3.9,15.2c-25.4,45.8-48.6,108.9-58.5,141.9
	c-6.5,21.5,67.4,50.2,106.7,50.2S407.7,489.2,406.4,477.5z"/>
<path class="st3" d="M315.5,269.5c-7.8,0-18.1-15.8-10.9-18.3c24.8-8.4,23-13.9,28.1-22.9C336,222.5,346,269.7,315.5,269.5z"/>
<path class="st3" d="M293.1,271.7c9.5,1,10.4-20,7.1-20c-11.3,0.1-17.1-3-21-8.6C276.4,239.1,265.2,268.9,293.1,271.7z"/>
<path class="st3" d="M396.1,181.2c12.3-44.3-52.2-64.9-76.6-64.9s-45.2,11.6-43.7,36.1c1.4,22.7,45.5,69.8,69.9,71
	C382.5,225.4,391.2,198.8,396.1,181.2z"/>
<path class="st3" d="M326.2,155.3c7.1,37.8-14.4,53.2-52.8,53.2s-43.5-61.9-5.5-77.6C306,115.2,320.9,127.1,326.2,155.3z"/>
<path class="st3" d="M344.4,186c-0.4,0.2-2.9-14.4-3.2-15.3c-4.9-16.1-9.4-28.6-32-42.5c-10.6-6.5-51.6,25.5-47.3,66.6
	c2.4,23.6,15.8,56.4,32.4,56.4c19.9,0,35.8-9.5,43.6-37.5C359.5,208.2,354.6,181.8,344.4,186z"/>
<g>
	<path class="st5" d="M316.4,188.1c-2.6,0-4.6,2.7-4.6,5.9s2.1,5.9,4.6,5.9s4.6-2.7,4.6-5.9S319,188.1,316.4,188.1z"/>
	<path class="st5" d="M277.1,190.3c-2.6,0-4.6,2.7-4.6,5.9c0,3.3,2.1,5.9,4.6,5.9s4.6-2.7,4.6-5.9
		C281.7,193,279.6,190.3,277.1,190.3z"/>
</g>
<path class="st4" d="M285.2,208.5c-3.6,4.5,7.1,10,15.1,3.6"/>
<path class="st4" d="M308.9,173.6c3.1-0.1,7.9-0.6,12.1,3.9"/>
<path class="st4" d="M270.8,178.5c2.7-1.4,6.8-4,12.6-1.8"/>
<g>
	<g class="st6">
		<path class="st7" d="M34,810.2l1.6,5.9c0.3,1.3,0.6,2.5,0.8,3.7h0.1c0.3-1.2,0.6-2.4,1-3.7l1.9-5.9h1.8L43,816
			c0.4,1.4,0.8,2.6,1,3.8h0.1c0.2-1.2,0.5-2.4,0.9-3.8l1.6-5.8h2.1l-3.7,11.6H43l-1.8-5.5c-0.4-1.3-0.7-2.4-1-3.8h0
			c-0.3,1.4-0.6,2.6-1.1,3.8l-1.9,5.5h-1.9l-3.5-11.6L34,810.2L34,810.2z"/>
		<path class="st7" d="M51.9,810.2l1.6,5.9c0.3,1.3,0.6,2.5,0.8,3.7h0.1c0.3-1.2,0.6-2.4,1-3.7l1.9-5.9H59l1.8,5.8
			c0.4,1.4,0.8,2.6,1,3.8h0.1c0.2-1.2,0.5-2.4,0.9-3.8l1.6-5.8h2.1l-3.7,11.6h-1.9l-1.8-5.5c-0.4-1.3-0.7-2.4-1-3.8h0
			c-0.3,1.4-0.6,2.6-1.1,3.8l-1.9,5.5h-1.9l-3.5-11.6L51.9,810.2L51.9,810.2z"/>
		<path class="st7" d="M69.8,810.2l1.6,5.9c0.3,1.3,0.6,2.5,0.8,3.7h0.1c0.3-1.2,0.6-2.4,1-3.7l1.9-5.9h1.8l1.8,5.8
			c0.4,1.4,0.8,2.6,1,3.8h0.1c0.2-1.2,0.5-2.4,0.9-3.8l1.6-5.8h2.1l-3.7,11.6h-1.9l-1.8-5.5c-0.4-1.3-0.7-2.4-1-3.8h0
			c-0.3,1.4-0.6,2.6-1.1,3.8l-1.9,5.5h-1.9l-3.5-11.6L69.8,810.2L69.8,810.2z"/>
		<path class="st7" d="M85.1,820.5c0-0.9,0.6-1.5,1.4-1.5s1.4,0.6,1.4,1.5c0,0.9-0.6,1.5-1.5,1.5C85.7,822,85.1,821.4,85.1,820.5z"
			/>
		<path class="st7" d="M90.2,819.6c0.6,0.4,1.7,0.8,2.8,0.8c1.5,0,2.2-0.7,2.2-1.7c0-1-0.6-1.5-2.1-2.1c-2.1-0.8-3.1-1.9-3.1-3.3
			c0-1.9,1.5-3.4,4-3.4c1.2,0,2.2,0.3,2.8,0.7l-0.5,1.5c-0.5-0.3-1.3-0.7-2.4-0.7c-1.2,0-1.9,0.7-1.9,1.6c0,1,0.7,1.4,2.2,2
			c2,0.7,3,1.7,3,3.5c0,2.1-1.6,3.5-4.3,3.5c-1.3,0-2.4-0.3-3.3-0.8L90.2,819.6z"/>
		<path class="st7" d="M102.5,807.4v2.8h3v1.6h-3v6.2c0,1.4,0.4,2.2,1.6,2.2c0.6,0,0.9,0,1.2-0.1l0.1,1.6c-0.4,0.1-1.1,0.3-1.9,0.3
			c-1,0-1.8-0.3-2.3-0.9c-0.6-0.6-0.8-1.7-0.8-3v-6.3h-1.8v-1.6h1.8V808L102.5,807.4z"/>
		<path class="st7" d="M110.2,806.9c0,0.7-0.5,1.3-1.3,1.3c-0.8,0-1.3-0.6-1.3-1.3s0.5-1.3,1.3-1.3
			C109.7,805.6,110.2,806.2,110.2,806.9z M107.9,821.7v-11.6h2.1v11.6H107.9z"/>
		<path class="st7" d="M113.5,804.8h2.1v7.2h0c0.3-0.6,0.9-1.1,1.5-1.5c0.6-0.4,1.4-0.6,2.2-0.6c1.6,0,4,1,4,4.9v6.9h-2.1v-6.6
			c0-1.9-0.7-3.4-2.7-3.4c-1.4,0-2.4,1-2.8,2.1c-0.1,0.3-0.1,0.6-0.1,1v7h-2.1V804.8z"/>
		<path class="st7" d="M129.1,806.9c0,0.7-0.5,1.3-1.3,1.3c-0.8,0-1.3-0.6-1.3-1.3s0.5-1.3,1.3-1.3
			C128.6,805.6,129.1,806.2,129.1,806.9z M126.8,821.7v-11.6h2.1v11.6H126.8z"/>
		<path class="st7" d="M132.4,813.9c0-1.5,0-2.7-0.1-3.8h1.9l0.1,2h0c0.8-1.4,2.2-2.2,4.1-2.2c2.8,0,4.9,2.4,4.9,5.9
			c0,4.2-2.6,6.2-5.3,6.2c-1.5,0-2.9-0.7-3.6-1.8h0v6.3h-2.1L132.4,813.9L132.4,813.9L132.4,813.9z M134.4,817c0,0.3,0,0.6,0.1,0.9
			c0.4,1.5,1.6,2.5,3.2,2.5c2.2,0,3.5-1.8,3.5-4.5c0-2.3-1.2-4.3-3.4-4.3c-1.4,0-2.8,1-3.2,2.6c-0.1,0.3-0.1,0.6-0.1,0.8L134.4,817
			L134.4,817z"/>
		<path class="st7" d="M145.9,813.8c0-1.4,0-2.5-0.1-3.6h1.8l0.1,2.3h0.1c0.5-1.6,1.8-2.5,3.2-2.5c0.2,0,0.4,0,0.6,0v2
			c-0.2,0-0.4,0-0.7,0c-1.5,0-2.5,1.1-2.8,2.7c0,0.3-0.1,0.6-0.1,1v6.2h-2.1L145.9,813.8L145.9,813.8z"/>
		<path class="st7" d="M164,815.9c0,4.3-3,6.1-5.8,6.1c-3.1,0-5.5-2.3-5.5-6c0-3.8,2.6-6.1,5.7-6.1C161.7,809.9,164,812.3,164,815.9
			z M154.8,816c0,2.5,1.4,4.4,3.5,4.4c2,0,3.5-1.9,3.5-4.5c0-2-1-4.4-3.5-4.4C155.9,811.5,154.8,813.8,154.8,816z"/>
		<path class="st7" d="M169,806.9c0,0.7-0.5,1.3-1.3,1.3c-0.8,0-1.3-0.6-1.3-1.3s0.5-1.3,1.3-1.3C168.5,805.6,169,806.2,169,806.9z
			 M166.6,821.7v-11.6h2.1v11.6H166.6z"/>
		<path class="st7" d="M182.1,820c0,2.7-0.6,4.3-1.6,5.3c-1.1,1-2.8,1.4-4.2,1.4c-1.4,0-2.9-0.3-3.8-1l0.5-1.6
			c0.8,0.5,2,0.9,3.4,0.9c2.1,0,3.7-1.1,3.7-4.1v-1.3h0c-0.6,1.1-1.9,1.9-3.7,1.9c-2.9,0-4.9-2.4-4.9-5.6c0-3.9,2.6-6.1,5.2-6.1
			c2,0,3.1,1,3.6,2h0l0.1-1.7h1.9c-0.1,0.8-0.1,1.8-0.1,3.2L182.1,820L182.1,820L182.1,820z M180,814.7c0-0.4,0-0.7-0.1-0.9
			c-0.4-1.2-1.4-2.2-2.9-2.2c-2,0-3.4,1.7-3.4,4.4c0,2.3,1.2,4.2,3.4,4.2c1.3,0,2.5-0.8,2.9-2.2c0.1-0.4,0.2-0.8,0.2-1.1L180,814.7
			L180,814.7z"/>
		<path class="st7" d="M185.4,813.8c0-1.4,0-2.5-0.1-3.6h1.8l0.1,2.3h0.1c0.5-1.6,1.8-2.5,3.2-2.5c0.2,0,0.4,0,0.6,0v2
			c-0.2,0-0.4,0-0.7,0c-1.5,0-2.5,1.1-2.8,2.7c0,0.3-0.1,0.6-0.1,1v6.2h-2.1L185.4,813.8L185.4,813.8z"/>
		<path class="st7" d="M202.9,818.6c0,1.2,0,2.3,0.1,3.2h-1.9l-0.1-1.9h0c-0.5,0.9-1.8,2.2-3.8,2.2c-1.8,0-4-1-4-5.1v-6.8h2.1v6.4
			c0,2.2,0.7,3.7,2.6,3.7c1.4,0,2.4-1,2.8-1.9c0.1-0.3,0.2-0.7,0.2-1.1v-7.1h2.1L202.9,818.6L202.9,818.6z"/>
		<path class="st7" d="M206.1,819.6c0.6,0.4,1.7,0.8,2.8,0.8c1.5,0,2.2-0.7,2.2-1.7c0-1-0.6-1.5-2.1-2.1c-2.1-0.8-3.1-1.9-3.1-3.3
			c0-1.9,1.5-3.4,4-3.4c1.2,0,2.2,0.3,2.8,0.7l-0.5,1.5c-0.5-0.3-1.3-0.7-2.4-0.7c-1.2,0-1.9,0.7-1.9,1.6c0,1,0.7,1.4,2.2,2
			c2,0.7,3,1.7,3,3.5c0,2.1-1.6,3.5-4.3,3.5c-1.3,0-2.4-0.3-3.3-0.8L206.1,819.6z"/>
		<path class="st7" d="M215.9,804.8h2.1v7.2h0c0.3-0.6,0.9-1.1,1.5-1.5c0.6-0.4,1.4-0.6,2.1-0.6c1.6,0,4,1,4,4.9v6.9h-2.1v-6.6
			c0-1.9-0.7-3.4-2.7-3.4c-1.4,0-2.4,1-2.8,2.1c-0.1,0.3-0.1,0.6-0.1,1v7h-2.1L215.9,804.8L215.9,804.8z"/>
		<path class="st7" d="M231.2,815.5L231.2,815.5c0.3-0.4,0.7-0.9,1.1-1.3l3.4-4h2.5l-4.4,4.8l5.1,6.8h-2.6l-4-5.5l-1.1,1.2v4.3h-2.1
			v-17h2.1L231.2,815.5L231.2,815.5z"/>
		<path class="st7" d="M243.1,806.9c0,0.7-0.5,1.3-1.3,1.3c-0.8,0-1.3-0.6-1.3-1.3s0.5-1.3,1.3-1.3
			C242.6,805.6,243.1,806.2,243.1,806.9z M240.8,821.7v-11.6h2.1v11.6H240.8z"/>
		<path class="st7" d="M245.9,820.5c0-0.9,0.6-1.5,1.4-1.5s1.4,0.6,1.4,1.5c0,0.9-0.6,1.5-1.5,1.5
			C246.4,822,245.9,821.4,245.9,820.5z"/>
		<path class="st7" d="M251.3,813.8c0-1.4,0-2.5-0.1-3.6h1.8l0.1,2.3h0.1c0.5-1.6,1.8-2.5,3.2-2.5c0.2,0,0.4,0,0.6,0v2
			c-0.2,0-0.4,0-0.7,0c-1.5,0-2.5,1.1-2.8,2.7c0,0.3-0.1,0.6-0.1,1v6.2h-2.1L251.3,813.8L251.3,813.8z"/>
		<path class="st7" d="M268.8,818.6c0,1.2,0,2.3,0.1,3.2H267l-0.1-1.9h0c-0.5,0.9-1.8,2.2-3.8,2.2c-1.8,0-4-1-4-5.1v-6.8h2.1v6.4
			c0,2.2,0.7,3.7,2.6,3.7c1.4,0,2.4-1,2.8-1.9c0.1-0.3,0.2-0.7,0.2-1.1v-7.1h2.1L268.8,818.6L268.8,818.6z"/>
	</g>
	<g>
		<g>
			<path class="st5" d="M284.4,822.4c-4.3,0-7.9-3.5-7.9-7.9c0-4.3,3.5-7.9,7.9-7.9s7.9,3.5,7.9,7.9S288.8,822.4,284.4,822.4z
				 M284.4,808.3c-3.4,0-6.2,2.8-6.2,6.2s2.8,6.2,6.2,6.2s6.2-2.8,6.2-6.2C290.6,811.1,287.8,808.3,284.4,808.3z"/>
		</g>
		<g>
			<path class="st5" d="M284.5,816.9c-1.4,0-2.6-1.1-2.6-2.6s1.1-2.6,2.6-2.6c1.1,0,2,0.7,2.4,1.6h1.7c-0.4-1.8-2.1-3.2-4.1-3.2
				c-2.3,0-4.2,1.9-4.2,4.2s1.9,4.2,4.2,4.2c2,0,3.6-1.4,4.1-3.2h-1.7C286.4,816.3,285.5,816.9,284.5,816.9z"/>
		</g>
	</g>
</g>
<g>
	<g class="st6">
		<path class="st7" d="M481.3,806.3v14.4l1.4,0l-0.1,5.5h-1.6l-0.1-3.9h-10.2l-0.1,3.9h-1.6l-0.1-5.5l1.2,0c0.6-1.1,1.2-2.3,1.6-3.5
			c0.5-1.9,0.8-4,0.8-6.8v-4.1H481.3z M474.2,811c0,2.6-0.2,4.8-0.8,6.6c-0.3,1.1-0.9,2.2-1.3,3.1h7.1V808h-5L474.2,811L474.2,811z"
			/>
		<path class="st7" d="M485.9,810.8l2.5,6.8c0.3,0.8,0.6,1.7,0.8,2.4h0c0.2-0.7,0.5-1.6,0.7-2.4l2.3-6.8h2.2l-3.2,8.2
			c-1.5,4-2.5,6-4,7.2c-1.1,0.9-2.1,1.2-2.6,1.3l-0.5-1.7c0.5-0.2,1.2-0.5,1.8-1c0.6-0.5,1.3-1.3,1.8-2.3c0.1-0.2,0.2-0.4,0.2-0.5
			s0-0.3-0.2-0.5l-4.3-10.7L485.9,810.8L485.9,810.8z"/>
		<path class="st7" d="M504.8,810.8v10l1.2,0l-0.1,5.2h-1.6l-0.1-3.7h-8l-0.1,3.7h-1.6l-0.1-5.2l1,0c0.5-0.7,0.9-1.5,1.1-2.4
			c0.5-1.4,0.7-3,0.7-4.6v-3L504.8,810.8L504.8,810.8z M499,814.3c0,1.6-0.2,3-0.6,4.3c-0.2,0.8-0.5,1.5-0.9,2.2h5.3v-8.4H499
			L499,814.3L499,814.3z"/>
		<path class="st7" d="M518.9,816.5c0,4.3-3,6.1-5.8,6.1c-3.1,0-5.5-2.3-5.5-6c0-3.8,2.6-6.1,5.7-6.1
			C516.7,810.6,518.9,813,518.9,816.5z M509.8,816.6c0,2.5,1.4,4.4,3.5,4.4c2,0,3.5-1.9,3.5-4.5c0-2-1-4.4-3.5-4.4
			C510.8,812.1,509.8,814.4,509.8,816.6z"/>
		<path class="st7" d="M523.2,810.8v3.9c0,1.5,0.5,2.5,2.4,2.5c0.9,0,1.9-0.3,2.5-0.8v-5.6h2.1v11.7h-2.1v-4.7h0
			c-0.8,0.5-2.1,0.9-3.2,0.9c-2.2,0-3.8-1.1-3.8-3.8v-4.2L523.2,810.8L523.2,810.8z"/>
		<path class="st7" d="M535.7,810.8v5h0.5l4.3-5h2.6l-5,5.2c1.9,0.2,3,1.5,3.9,3.5c0.3,0.8,0.7,1.9,1.2,2.8H541
			c-0.3-0.5-0.7-1.4-1.1-2.4c-0.8-1.9-1.9-2.7-3.8-2.7h-0.4v5.1h-2.1v-11.6H535.7z"/>
		<path class="st7" d="M553.4,819.6c0,1,0,2,0.2,2.8h-1.9l-0.2-1.5h-0.1c-0.6,0.9-1.9,1.7-3.5,1.7c-2.3,0-3.5-1.6-3.5-3.3
			c0-2.8,2.5-4.3,7-4.3v-0.2c0-0.9-0.3-2.7-2.6-2.7c-1.1,0-2.2,0.3-3,0.9l-0.5-1.4c1-0.6,2.4-1,3.8-1c3.5,0,4.4,2.4,4.4,4.7
			L553.4,819.6L553.4,819.6z M551.4,816.5c-2.3,0-4.9,0.4-4.9,2.6c0,1.4,0.9,2,2,2c1.5,0,2.5-1,2.8-1.9c0.1-0.2,0.1-0.5,0.1-0.7
			L551.4,816.5L551.4,816.5z"/>
	</g>
</g>
<g>
	<path class="st3" d="M275.4,380.4c-6.7,13.9-27.8,13.6-27.8,13.6s-19.6-12.3-15.1-27.6c8.2-27.3,27.1-7.6,27.1-7.6
		S287.4,355.4,275.4,380.4z"/>
	<path class="st3" d="M326.1,334.3c-0.6,15.4-20.1,23.5-20.1,23.5s-22.9-3.5-24.8-19.4c-3.3-28.3,21.9-17.7,21.9-17.7
		S327.2,306.6,326.1,334.3z"/>
	<path class="st3" d="M371.1,372c2.5,15.3-15.1,27-15.1,27s-23.2,1.1-28.1-14.1c-8.9-27,17.9-21.7,17.9-21.7S366.7,344.6,371.1,372z
		"/>
	<path class="st3" d="M321.2,399.1C320.5,414.5,304,422,304,422s-19.3-4.2-20.7-20.1c-2.5-28.3,18.6-17.1,18.6-17.1
		S322.4,371.4,321.2,399.1z"/>
	<path class="st3" d="M387.8,446.3c0.2,15.4-15.9,23.8-15.9,23.8s-19.5-3.1-21.8-18.9c-4.2-28.1,17.6-18.1,17.6-18.1
		S387.4,418.5,387.8,446.3z"/>
	<path class="st3" d="M256.9,436.9c-5.3,15.7-24.6,18.4-24.6,18.4s-18.6-10.2-15.3-27c5.9-30,24.4-12,24.4-12
		S266.5,408.7,256.9,436.9z"/>
	<path class="st3" d="M320,458.4c-3.2,16.5-22.2,22-22.2,22s-20.2-7.6-19.2-25c1.8-31,22.8-15.5,22.8-15.5S325.7,428.7,320,458.4z"
		/>
</g>
<path class="st0" d="M299.4,227.1c-0.5-4.1-3.7-7-7.1-6.6c-2.8,0.3-4.8,2.8-5.3,5.9c-7.9,2.9-27.2,13.4-48.9,23.4
	c-13.9,6.4-35.7,9.3-51.7-5.2c-0.1-0.1-0.3-0.2-0.4-0.4c0,0,0,0,0,0c-0.1-0.1-0.3-0.2-0.4-0.3c-2.8-2.4-5.6-3.4-8-2.7
	c-7.6,2.2-9,20.4-3.2,40.7c5.9,20.3,16.8,34.9,24.4,32.7c2.2-0.6,3.9-2.7,5.1-5.7v0c0,0,0,0,0,0c0.1-0.2,0.2-0.4,0.2-0.7
	c10.1-28.4,24-38.2,38.9-45.1c22-10.1,38.3-23,48.1-28.4c0.9,0.4,2,0.6,3,0.5C297.6,234.8,299.9,231.1,299.4,227.1z"/>
<ellipse transform="matrix(0.9605 -0.2781 0.2781 0.9605 -69.937 63.2986)" class="st8" cx="188.1" cy="278.2" rx="14.4" ry="38.2"/>
<ellipse transform="matrix(0.9544 -0.2984 0.2984 0.9544 -74.7463 67.4311)" class="st9" cx="183.4" cy="278.5" rx="9.7" ry="28.2"/>
<path class="st0" d="M253.3,283.6c0,23-8.8,50.7-21.4,51.8c-23.3,1.9-9.7-57.5-9.7-57.5s18.7-17.8,30.8-19.7
	c4-0.6,4.1-9.6,10.4-10.5c4.5-0.7,5.3,5,1,11.5C260.5,265,253.3,272.6,253.3,283.6z"/>
<path class="st10" d="M259.3,247.8c-0.7,3.7-7.4,9.3-13.2,11.5c-6.1,2.3-20.3-0.4-20.3-7.1c0-6.7,14.5-12.3,20.7-12.3
	S260.6,241.2,259.3,247.8z"/>
<path class="st11" d="M237.1,249.2c0,3.5-2.6,5.3-5.7,5.3s-6.4-3.6-6.4-7.1s3.6-5.4,6.6-5.4S237.1,245.7,237.1,249.2z"/>
<path class="st11" d="M248.1,243.6c0,3.5-2.6,5.3-5.7,5.3s-6.4-3.6-6.4-7.1s3.6-5.4,6.6-5.4S248.1,240.1,248.1,243.6z"/>
<path class="st11" d="M257.8,241.3c0,3.5-2.6,5.3-5.7,5.3s-6.4-3.6-6.4-7.1s3.6-5.4,6.6-5.4S257.8,237.8,257.8,241.3z"/>
<g>
	<path class="st3" d="M251.8,291.6c-7.9,0-16.7-4.8-24.7-17.8l5-4c8.9,14.7,20.2,18.7,30.2,10.9c9.3-7.3,15.1-21.3,8.6-32.1l6.7-4.1
		c8.5,14.2-0.2,32.8-11.8,42C261.8,289.6,257,291.6,251.8,291.6z"/>
</g>
<g>
	<path class="st3" d="M326.1,299.5c-14.2-2.9-28.4-7-43-8.7c-4-0.5-10-1.7-13.1-3.4c-9.8-5.6-24.9-20.4-30-16.7
		c-2.8,2,1.5,6.1,5.6,13.2c1.3,2.1-13.3-4.1-14.6-0.8c-1.6,4.3,2.8,7.3,2.8,7.3s-2.7-1.5-3.9-0.4c-4.3,3.9,3.5,7.5,3.5,7.5
		s-2.6-1-3.2,1.6c-1,3.8,4.4,6.2,4.4,6.2s-0.3,1.2,2.1,3.6c3.5,3.6,8.3,3.2,11.4,3.1c6.1,0,11.8-3.5,15.4-1.5
		c18.4,9.8,76.7,30.5,88.1,24c8.4-4.8,14-11,16.8-18.2C366.4,316.7,328,305.4,326.1,299.5z"/>
	<path class="st3" d="M233.8,290.4c2.5,1.9,4.2,1.8,6.2,2.3"/>
	<path class="st3" d="M233.4,297.5c2.7,1.5,4.7,1.7,6.7,2"/>
	<path class="st3" d="M235.1,305.6c2.8,1.5,4.5,1.1,6.5,1.3"/>
</g>
<path class="st3" d="M539.7,643.6c-5.4,30-40.3,30.4-95.7,35.5c-34.7,3.2-54.8-45.9-43.5-65.2c19.3-33,58,9,58,9s55.3-16.8,64-15.8
	C543.3,609.5,543.2,624.3,539.7,643.6z"/>
<path class="st3" d="M544.3,648.2c2-15.5-2.3-24.5-42.5-24.5c-8.8,0-64,15.8-64,15.8s-38.7-42-58-9c-11.3,19.3,8.8,68.4,43.5,65.2
	c44.5-4.2,91.6-8.8,111.1-26C556,685.5,568.6,654.6,544.3,648.2z"/>
<path class="st3" d="M539.5,592.5c1.4,14.2,7.2,32.8,0.8,42.8c-4.3,6.8-23,6.3-36.2,6.3c-16.8,0-55-5.8-62-25.2
	c-2.8-7.8,7.1-27.2,10.7-35.7c18.2-43,37.1-66.2,60.7-66.2S536.2,559.1,539.5,592.5z"/>
<path class="st3" d="M540.9,598.7c-4.2,0-8.2,0-12-0.2c-0.5,3.1-1,4.7-1.8,6.6c-0.4,0.9-1.7,4.3-4.9,5.9c-2.7,1.4-5.8,2-8.9,2.4
	c9.7,1.7,18.6,2.6,25.3,1.7c0.8-0.1,4-0.6,4.7-0.5C542.7,609.3,541.7,603.9,540.9,598.7z"/>
<path class="st3" d="M484.8,606.4c-1.1-1.7-3.1-3.1-3.3-5.1c-0.3-2.8,0.3-6.6,1.8-10c-19-5.6-28.4-12.4-29.2-12.3
	c-0.3,0.6-0.5,1.2-0.8,1.8c-1.7,3.9-4.7,10.2-7.2,16.6c6.7,1.5,13,4.2,19.6,5.5c6.1,1.2,12.8,2.8,19.7,4.4
	C485.3,607.1,485,606.8,484.8,606.4z"/>
<path class="st3" d="M482.2,603.3c-9.5,16-18.7,38.6-18.7,53.5c0,25.2,7.2,33.7,16.8,35.5c18.7,3.5,25.1-7,31.2-30.7
	c2.9-11.5,8.4-33.2,8.1-49.6C507.7,613.2,489,615.3,482.2,603.3z"/>
<path class="st4" d="M498.7,568.3c-9.2,7.8-18.6,26.7-17.2,33c3.3,14,35.7,12.7,41.2,9.7c5.6-3.1,7.5-18.2,6.7-26.5"/>
<path class="st3" d="M475.6,488c0,15.6,2.7,31.7-5.9,29.4c-10.4-2.8-22.4-19.2-22.4-34.8s16.3-21.8,25.2-21.8S475.6,472.4,475.6,488
	z"/>
<ellipse transform="matrix(0.3197 -0.9475 0.9475 0.3197 -145.1028 749.2433)" class="st12" cx="449.2" cy="475.7" rx="8.7" ry="5.6"/>
<g>
	<path class="st13" d="M550.9,470.5"/>
	<path class="st3" d="M546,440.8c-7.4-5.1-16.6-7.7-26.9-7.7c-25.8,0-54.1,23.9-54.1,53.4s4.9,49.2,45.7,51.2
		c28.3,1.4,53.2-29.1,53.2-58.7c0-5.7-0.7-11-2.1-15.7C576.6,448.9,560.3,430,546,440.8z"/>
</g>
<g>
	<path class="st14" d="M561.8,463.4c-2.6,2.6-6.2,5-10.9,7.1"/>
	<path class="st14" d="M563.9,479.1"/>
	<path class="st14" d="M510.7,537.7"/>
	<path class="st14" d="M465,486.5"/>
	<path class="st14" d="M519.1,433.1"/>
	<path class="st14" d="M537.6,451.8c2.5-5.2,5.4-8.8,8.4-11.1"/>
	<path class="st3" d="M546,440.8"/>
	<path class="st3" d="M561.8,463.4"/>
</g>
<path class="st4" d="M451.6,499.7c3.6,0.2,4.9,0.8,8.8-2.4"/>
<path class="st3" d="M485.1,465.3c-0.3,4.5-7.1,10.2-9.9,10.2c-2.8,0-1.7-3.9-0.8-8c1-4.4,3.1-7.5,5.9-7.5
	C483.1,460,485.4,460.8,485.1,465.3z"/>
<path class="st7" d="M481.1,461.3c-0.5-0.7-1.4-1-2.5-1.1c0,0-0.1,0-0.2,0c-1.8,0-3.2,1.7-4,4.7l-0.1,0.4c-0.5,2-1,3.5-0.2,4.5
	c0.2,0.3,0.6,0.7,1.4,0.7c0,0,0.1,0,0.1,0c2.1,0,5.8-3.4,6.1-6.2C481.9,463.1,481.7,462.1,481.1,461.3z"/>
<path class="st3" d="M192.7,598.3c0-12.8-6-22.6-13.3-23.2c-13.3-0.9-14.5,15.2-33.8,15.9c-16.2,0.6-32.3-8.9-39.9-3.8
	c-3.8,2.5-7.2,12.8-4.1,21.6c4.2,11.5,19.7,22,44,22c21.7,0,39.7-7.1,43.3-16.5C191.3,610.3,192.7,604.6,192.7,598.3z"/>
<ellipse class="st0" cx="179.4" cy="598.3" rx="13.3" ry="23.2"/>
<path class="st0" d="M124.1,589.2c8.7,5.6,24.5,5,30.4-5.7s-1.5-24.8-23.1-35.6c-14.5-7.2-34.3-13.5-39.1-2.5
	c-6.9,15.7,24.6,29.4,24.6,29.4S116.7,584.5,124.1,589.2z"/>
<path class="st0" d="M149,588.6c0,21.8-15.1,46.8-34,45.8c-43.6-2.4-52.6-42.5-52.6-64.3s22-29.8,40.9-29.8S149,566.8,149,588.6z"/>
<path class="st0" d="M78.8,481c-8.5,1-15.5-2.5-16.6-12.5c-1.2-10,7-19.8,15.5-19.9c13.7-0.1,16.3,11.4,17.5,21.4
	C96.4,480,87.3,480,78.8,481z"/>
<path class="st0" d="M79,487.3c-5.9,0.7-6.8-3.9-9.9-13.1c-3.2-9.3,2.2-18.3,8.2-18.1c9.6,0.4,11.8,11.5,12.9,21.1
	S84.9,486.7,79,487.3z"/>
<path class="st0" d="M59.4,507.8c0,10.6-5.3,18.7-17.8,18.7s-23.4-11.5-22.3-22c1.9-16.8,16.3-18.5,28.8-18.5S59.4,497.3,59.4,507.8
	z"/>
<path class="st0" d="M67.3,508.5c0,7.4-5.8,7.8-17.6,10.3c-11.9,2.6-22.2-5.3-21.1-12.6c1.8-11.7,15.8-12.9,27.8-12.9
	S67.3,501.1,67.3,508.5z"/>
<path class="st3" d="M112.5,512.5c3.8,21.6-2.8,43.8-24.8,43.8s-47.3-17.4-47.3-42S58.2,465,80.1,465S107.6,484.4,112.5,512.5z"/>
<ellipse class="st3" cx="77.9" cy="498.9" rx="8.6" ry="8.2"/>
<ellipse class="st3" cx="96.2" cy="481.1" rx="8.6" ry="8.2"/>
<g>
	<path class="st5" d="M80.3,491.7c-2.8,0-5,2-5,4.5s2.3,4.5,5,4.5s5-2,5-4.5S83.1,491.7,80.3,491.7z"/>
	<path class="st5" d="M97.4,474.6c-2.8,0-5,2-5,4.5s2.3,4.5,5,4.5s5-2,5-4.5S100.2,474.6,97.4,474.6z"/>
</g>
<path class="st3" d="M129.2,510.6c0,16-4.4,23.1-17.1,25c-13.3,2-25.1-9.7-25.1-25.7c0-16,8.4-24.7,17.4-25.9
	C115.7,482.5,129.2,494.6,129.2,510.6z"/>
<ellipse class="st3" cx="112.7" cy="497.2" rx="8.2" ry="7.4"/>
<path class="st4" d="M113.5,521.4c0-6.6,6.5-12.6,15.6-13.7"/>
<path class="st4" d="M117.3,503.3c3.1,3.6,2.8,4.5,3.6,6.6"/>
<path class="st3" d="M171.7,625.6c0-14.1-6.6-25-14.7-25.6c-14.7-1-16,16.8-37.3,17.6c-17.9,0.7-35.7-9.8-44.1-4.2
	c-4.2,2.8-8,14.2-4.5,23.9c4.6,12.8,21.7,24.3,48.5,24.3c23.9,0,43.8-7.8,47.8-18.2C170.1,638.8,171.7,632.5,171.7,625.6z"/>
<ellipse class="st0" cx="157" cy="625.6" rx="14.7" ry="25.6"/>
<path class="st0" d="M113.8,598.5c6.7,10.2,5.2,27-8.5,31.6s-35.7-9.7-41.5-26.8c-5.7-17.2-10.4-40.5,3.6-43.9
	c20.1-4.8,28.6,29.1,28.6,29.1S108.1,589.8,113.8,598.5z"/>
<path class="st4" d="M328.4,280.2c-2.7,12.9-6.6,15.8-0.3,21.4c7.5,6.6,38.3,16.7,47.8,14.9c9.7-1.8,7.4-19.7,4.9-25.5"/>
<path class="st4" d="M544.7,642.3c0,11.6-3.3,23.1-11.3,28.2"/>
</svg>
